<svg width="87" height="78" viewBox="0 0 87 78" fill="none" xmlns="http://www.w3.org/2000/svg">
<path fill-rule="evenodd" clip-rule="evenodd" d="M43.6999 0.300049L52.2999 0.300049V8.90005L43.6999 8.90005V0.300049ZM60.8999 17.5L52.2999 17.5L52.2999 8.90005L60.8999 8.90005L60.8999 17.5ZM69.4999 26.1L60.8999 26.1V17.5L69.4999 17.5L69.4999 26.1ZM78.1 34.7001V26.1L69.4999 26.1L69.5 34.7001L60.8999 34.7H52.2999L43.7 34.7H35.1L26.5 34.7L17.9 34.7001L9.29995 34.7001H0.699951L0.699951 43.3H9.29995L17.9 43.3H26.5L35.1 43.3H43.7L52.2999 43.3H60.8999L69.5 43.3V51.9L60.9 51.9V60.5H52.2999L52.2999 69.1L43.7 69.1001V77.7001H52.2999V69.1L60.8999 69.1L60.9 60.5L69.5 60.5L69.5 51.9H78.1V43.3L86.7 43.3V34.7L78.1 34.7001ZM78.1 34.7001H69.5V43.3L78.1 43.3V34.7001Z" fill="#00FFA3"/>
</svg>
