<svg width="350" height="48" viewBox="0 0 350 48" fill="none" xmlns="http://www.w3.org/2000/svg">
<path d="M77.7613 15.1287C76.0244 14.3325 74.0863 13.9387 71.9469 13.9387C70.1881 13.9387 68.6438 14.1881 67.3094 14.6869C65.975 15.1856 64.8419 15.8287 63.91 16.625C62.9781 17.4212 62.2388 18.2744 61.6875 19.1844V0H55.9694V47.2019H61.8144V25.2831C61.8144 23.8 62.2125 22.5794 63.0044 21.6125C63.8006 20.65 64.8419 19.9281 66.1325 19.4512C67.4231 18.9744 68.8013 18.7381 70.2625 18.7381C72.4238 18.7381 74.1738 19.2719 75.5213 20.3437C76.8688 21.4156 77.5381 22.9337 77.5381 24.9025V47.2019H83.4138V23.73C83.4138 21.7175 82.9063 19.9806 81.8913 18.5194C80.8763 17.0494 79.4981 15.9206 77.7613 15.1287Z" fill="white"/>
<path d="M99.0762 1.29495H93.0737V7.3937H99.0762V1.29495Z" fill="white"/>
<path d="M98.9494 14.3499H93.2662V47.193H98.9494V14.3499Z" fill="white"/>
<path d="M155.172 15.715C153.033 14.3807 150.417 13.7157 147.328 13.7157C144.152 13.7157 141.435 14.4463 139.177 15.9075C136.92 17.3688 135.2 19.4032 134.015 22.0063C132.829 24.6094 132.234 27.6369 132.234 31.0888C132.234 34.5844 132.89 37.5813 134.203 40.0794C135.515 42.5776 137.335 44.4938 139.667 45.8282C141.999 47.1625 144.694 47.8275 147.77 47.8275C149.887 47.8275 151.917 47.4426 153.869 46.6682C155.815 45.8982 157.478 44.7476 158.856 43.2207C160.23 41.6938 161.122 39.8213 161.525 37.5988H155.969C155.544 39.4407 154.577 40.8494 153.064 41.8207C151.55 42.7963 149.743 43.2819 147.647 43.2819C145.53 43.2819 143.767 42.7832 142.358 41.79C140.949 40.7969 139.899 39.4582 139.212 37.7738C138.525 36.0894 138.18 34.2125 138.18 32.1344H161.717V29.9732C161.717 26.6482 161.162 23.7738 160.05 21.35C158.935 18.9263 157.312 17.0494 155.172 15.715ZM138.21 28.1663C138.189 26.5344 138.512 24.9551 139.177 23.4194C139.842 21.8838 140.849 20.6238 142.196 19.6394C143.539 18.655 145.241 18.1607 147.293 18.1607C149.262 18.1607 150.898 18.6025 152.202 19.4775C153.505 20.3569 154.472 21.5557 155.107 23.0694C155.741 24.5832 156.06 26.2807 156.06 28.1663H138.21V28.1663Z" fill="white"/>
<path d="M195.195 6.50124C195.681 5.78374 196.595 5.42061 197.925 5.42061H202.847L202.816 1.25999H196.621C193.974 1.25999 191.984 1.94249 190.649 3.30749C189.315 4.67249 188.65 6.65874 188.65 9.26624V14.35H181.724V18.6375H188.65V47.1931H194.561V18.6375H202.532V14.35H194.464V9.77374C194.464 8.31249 194.709 7.22311 195.195 6.50124Z" fill="white"/>
<path d="M225.085 13.7112C223.711 13.7112 222.381 13.9649 221.099 14.4724C219.817 14.9799 218.68 15.7499 217.682 16.7737C216.685 17.8018 215.915 19.1012 215.364 20.6674V14.3456H209.772V47.1887H215.617V26.7662C215.617 25.388 215.867 24.2199 216.366 23.2574C216.864 22.2949 217.547 21.5162 218.413 20.9212C219.279 20.3306 220.286 19.9105 221.432 19.6655C222.574 19.4205 223.803 19.3418 225.116 19.4293C225.457 19.4293 225.872 19.4555 226.371 19.508C226.87 19.5605 227.277 19.6612 227.596 19.8099V14.1268C227.342 13.9781 226.979 13.8731 226.516 13.8074C226.047 13.7462 225.571 13.7112 225.085 13.7112Z" fill="white"/>
<path d="M311.566 16.0781C310.498 15.1987 309.339 14.5862 308.088 14.2362C306.836 13.8862 305.642 13.7112 304.496 13.7112C302.317 13.7112 300.353 14.2056 298.62 15.1899C296.883 16.1743 295.509 17.4693 294.49 19.0793C293.917 17.9155 293.112 16.9312 292.075 16.1262C291.038 15.3212 289.901 14.7174 288.658 14.3149C287.42 13.9124 286.208 13.7112 285.023 13.7112C282.481 13.7112 280.416 14.2493 278.828 15.3299C277.239 16.4106 275.988 17.6705 275.078 19.1099V14.3456H269.426V47.1887H275.271V25.2393C275.271 23.6949 275.656 22.4393 276.43 21.4768C277.204 20.5143 278.154 19.8099 279.291 19.3637C280.424 18.9174 281.553 18.6987 282.673 18.6987C283.688 18.6987 284.712 18.9218 285.736 19.3637C286.764 19.8099 287.621 20.4662 288.308 21.3324C288.995 22.203 289.341 23.2793 289.341 24.5743V47.1887H295.186V25.2393C295.186 23.5856 295.588 22.2862 296.393 21.3324C297.198 20.3787 298.169 19.7005 299.316 19.298C300.458 18.8955 301.538 18.6943 302.558 18.6943C303.721 18.6943 304.819 18.9174 305.848 19.3593C306.876 19.8056 307.707 20.5712 308.341 21.6605C308.976 22.7499 309.291 24.2943 309.291 26.2849V47.1843H315.201V25.7118C315.201 23.2749 314.864 21.2799 314.186 19.7224C313.508 18.1737 312.633 16.9574 311.566 16.0781Z" fill="white"/>
<path d="M5.47313 14.3499H0V25.2962H5.47313V14.3499Z" fill="white"/>
<path d="M27.37 14.3499H21.8969V25.2962H27.37V14.3499Z" fill="white"/>
<path d="M49.2669 14.3499H43.7937V25.2962H49.2669V14.3499Z" fill="white"/>
<path d="M10.9463 25.2963H5.47322V36.2425H10.9463V25.2963Z" fill="white"/>
<path d="M21.8968 25.2963H16.4237V36.2425H21.8968V25.2963Z" fill="white"/>
<path d="M16.4194 36.2425H10.9462V47.1888H16.4194V36.2425Z" fill="white"/>
<path d="M32.843 25.2963H27.3699V36.2425H32.843V25.2963Z" fill="white"/>
<path d="M43.7894 25.2963H38.3162V36.2425H43.7894V25.2963Z" fill="white"/>
<path d="M38.3162 36.2425H32.8431V47.1888H38.3162V36.2425Z" fill="white"/>
<path d="M118.79 14.0482V3.00131H113.269V14.0482H107.743V19.5738H113.269V41.6676H118.79V19.5738H129.841V14.0482H118.79Z" fill="white"/>
<path d="M129.837 41.6676H118.79V47.1932H129.837V41.6676Z" fill="white"/>
<path d="M259.188 19.8232H253.715V25.2963H242.764V30.7694H253.715V41.72H259.188V19.8232Z" fill="white"/>
<path d="M242.764 36.2424V30.7693H231.818V41.7199H237.291V36.2424H242.764Z" fill="white"/>
<path d="M253.715 14.3499H237.291V19.823H253.715V14.3499Z" fill="white"/>
<path d="M237.291 19.8232H231.818V25.2963H237.291V19.8232Z" fill="white"/>
<path d="M344.527 14.3499H328.103V19.823H344.527V14.3499Z" fill="white"/>
<path d="M344.527 41.72H328.103V47.1931H344.527V41.72Z" fill="white"/>
<path d="M350 36.2425H344.527V41.7156H350V36.2425Z" fill="white"/>
<path d="M344.527 19.8232V25.2963H339.054V30.7694H350V19.8232H344.527Z" fill="white"/>
<path d="M328.103 30.7694V19.8232H322.63V41.72H328.103V36.2425H339.054V30.7694H328.103Z" fill="white"/>
<path d="M253.715 41.72H237.291V47.1931H253.715V41.72Z" fill="white"/>
<path d="M264.661 41.72H259.188V47.1931H264.661V41.72Z" fill="white"/>
</svg>
